<svg width="240" height="240" version="1.1" viewBox="0 0 63.5 63.5" xmlns="http://www.w3.org/2000/svg">
 <g transform="translate(.000185 9.9215)" fill="#d33682" stroke-width=".26458px">
  <path d="m13.604 0.071555-8.9097 8.9098 0.29633 0.29633 8.9098-8.9098z" style="white-space:pre"/>
  <path d="m16.321 9.8407v-9.5419h0.7705v9.5419z" style="white-space:pre"/>
  <path d="m21.872 8.9813 0.6717-0.57291c-0.6124-0.72109-1.5014-1.62-2.2126-2.1929l-0.642 0.56304c0.7013 0.57291 1.5508 1.4224 2.1829 2.2028z" style="white-space:pre"/>
  <path d="m39.405 8.4282v-5.2352h0.7705v0.41487c0.0329-0.07244 0.0724-0.13829 0.1185-0.19755 0.0461-0.06586 0.0988-0.12183 0.158-0.16793 0.0659-0.04609 0.135-0.07902 0.2075-0.09878 0.079-0.01975 0.158-0.02963 0.237-0.02963 0.0988 0 0.1943 0.01647 0.2865 0.04939 0.0922 0.03293 0.1712 0.08232 0.2371 0.14817 0.0724 0.06585 0.1317 0.14158 0.1778 0.22719s0.0823 0.1778 0.1086 0.27658c0.0264-0.0922 0.0626-0.1811 0.1087-0.2667 0.0461-0.0922 0.102-0.17122 0.1679-0.23707s0.1449-0.11524 0.2371-0.14817c0.0922-0.03292 0.1876-0.04939 0.2864-0.04939s0.1943 0.01976 0.2865 0.05927c0.0988 0.03293 0.1844 0.08561 0.2568 0.15805 0.0724 0.06585 0.1284 0.14487 0.1679 0.23706 0.0461 0.0922 0.0823 0.18768 0.1087 0.28646 0.0263 0.09219 0.0428 0.18768 0.0494 0.28646 0.0131 0.09877 0.0197 0.19755 0.0197 0.29633v3.9906h-0.7704v-3.9906c0-0.07244-0.0066-0.14158-0.0198-0.20743-0.0066-0.07244-0.0264-0.14159-0.0593-0.20744s-0.0823-0.11853-0.1481-0.15804c-0.0593-0.03952-0.1252-0.05927-0.1976-0.05927-0.0658 0-0.1317 0.01975-0.1975 0.05927-0.0593 0.03951-0.1054 0.09219-0.1383 0.15804-0.033 0.06586-0.056 0.135-0.0692 0.20744-0.0066 0.06585-0.0099 0.13499-0.0099 0.20743v3.9906h-0.7704v-3.9906c0-0.07244-0.0066-0.14158-0.0198-0.20743-0.0066-0.07244-0.0264-0.14159-0.0593-0.20744s-0.0823-0.11853-0.1481-0.15804c-0.0593-0.03952-0.1219-0.05927-0.1877-0.05927-0.0725 0-0.1416 0.01975-0.2074 0.05927-0.0593 0.03951-0.1054 0.09219-0.1383 0.15804-0.033 0.06586-0.056 0.135-0.0692 0.20744-0.0066 0.06585-0.0099 0.13499-0.0099 0.20743v3.9906z" style="white-space:pre"/>
  <path d="m46.359 8.5072c-0.1844 0-0.3655-0.01647-0.5433-0.0494-0.1712-0.03294-0.3359-0.0922-0.4939-0.1778-0.1581-0.09219-0.2963-0.20414-0.4149-0.33584-0.1185-0.13829-0.2173-0.28646-0.2963-0.4445-0.0724-0.16463-0.1218-0.33585-0.1482-0.51365-0.0263-0.1778-0.0395-0.3556-0.0395-0.5334v-1.2841c0-0.1778 0.0132-0.3556 0.0395-0.5334 0.0264-0.1778 0.0758-0.34572 0.1482-0.50377 0.0724-0.16463 0.1679-0.31279 0.2864-0.4445 0.1252-0.13829 0.2635-0.25023 0.4149-0.33584 0.1515-0.08561 0.3161-0.14488 0.4939-0.1778 0.1778-0.03952 0.3556-0.05927 0.5334-0.05927s0.3556 0.01975 0.5334 0.05927c0.1778 0.03292 0.3424 0.09219 0.4939 0.1778s0.2864 0.19755 0.405 0.33584c0.1251 0.13171 0.2239 0.27987 0.2963 0.4445 0.0725 0.15805 0.1218 0.32597 0.1482 0.50377 0.0263 0.1778 0.0395 0.3556 0.0395 0.5334v0.98778h-3.0621v0.29633c0 0.11195 0.0066 0.2239 0.0197 0.33585 0.0132 0.11194 0.0396 0.2206 0.0791 0.32596 0.0461 0.10537 0.102 0.20414 0.1679 0.29634 0.0724 0.09219 0.1547 0.17121 0.2469 0.23706 0.0922 0.05927 0.1943 0.10207 0.3062 0.12841 0.112 0.02634 0.2272 0.03951 0.3458 0.03951 0.1251 0 0.2502-0.01317 0.3753-0.03951 0.1317-0.02634 0.2503-0.07243 0.3556-0.13829 0.112-0.07243 0.2009-0.16463 0.2667-0.27657 0.0659-0.11854 0.1021-0.24036 0.1087-0.36548h0.7704c-0.0066 0.14487-0.0362 0.28975-0.0889 0.43462-0.0461 0.14488-0.1152 0.27987-0.2074 0.40499-0.0856 0.11853-0.191 0.2239-0.3161 0.31609-0.1185 0.0856-0.2469 0.15804-0.3852 0.21731-0.1383 0.05266-0.2832 0.08888-0.4346 0.10866-0.1515 0.01973-0.2997 0.0296-0.4445 0.0296zm-1.1656-3.0424h2.2916v-0.29633c0-0.11195-0.0066-0.2239-0.0197-0.33584-0.0132-0.11195-0.0395-0.22061-0.0791-0.32597-0.0395-0.10536-0.0954-0.20414-0.1679-0.29633-0.0658-0.0922-0.1449-0.16793-0.237-0.22719-0.0922-0.06586-0.1943-0.11195-0.3063-0.13829-0.1119-0.02634-0.2239-0.03951-0.3358-0.03951s-0.2239 0.01317-0.3358 0.03951c-0.112 0.02634-0.2141 0.07243-0.3063 0.13829-0.0921 0.05926-0.1745 0.13499-0.2469 0.22718-0.0659 0.0922-0.1185 0.19098-0.158 0.29634-0.0396 0.10536-0.0659 0.21402-0.0791 0.32596-0.0131 0.11195-0.0197 0.2239-0.0197 0.33585z" style="white-space:pre"/>
  <path d="m51.278 8.5072c-0.1778 0-0.3556-0.01977-0.5334-0.0593-0.1778-0.03294-0.3424-0.0922-0.4939-0.1778-0.1515-0.08561-0.2897-0.19427-0.4149-0.32597-0.1185-0.13829-0.214-0.28646-0.2864-0.4445-0.0725-0.16463-0.1218-0.33585-0.1482-0.51365-0.0263-0.1778-0.0395-0.3556-0.0395-0.5334v-1.2841c0-0.1778 0.0132-0.3556 0.0395-0.5334 0.0264-0.1778 0.0757-0.34572 0.1482-0.50377 0.0724-0.16463 0.1679-0.31279 0.2864-0.4445 0.1252-0.13829 0.2634-0.25023 0.4149-0.33584 0.158-0.08561 0.3227-0.15146 0.4939-0.19756 0.1778-0.0461 0.3556-0.06915 0.5334-0.06915s0.3523 0.02305 0.5235 0.06915c0.1778 0.0461 0.3424 0.11195 0.4939 0.19756 0.158 0.08561 0.2963 0.19755 0.4149 0.33584 0.1251 0.13171 0.2239 0.27987 0.2963 0.4445 0.0724 0.15805 0.1218 0.32597 0.1482 0.50377 0.0263 0.1778 0.0395 0.3556 0.0395 0.5334v1.2841c0 0.1778-0.0132 0.3556-0.0395 0.5334-0.0264 0.1778-0.0758 0.34902-0.1482 0.51365-0.0724 0.15804-0.1712 0.30621-0.2963 0.4445-0.1186 0.1317-0.2536 0.24036-0.405 0.32597-0.1515 0.0856-0.3161 0.14487-0.4939 0.1778-0.1778 0.03953-0.3556 0.0593-0.5334 0.0593zm0-0.69145c0.1119 0 0.2239-0.01317 0.3358-0.03951 0.112-0.02634 0.2141-0.06914 0.3062-0.12841 0.0922-0.06585 0.1713-0.14487 0.2371-0.23706 0.0724-0.0922 0.1284-0.19097 0.1679-0.29634 0.0395-0.10536 0.0659-0.21402 0.0791-0.32596 0.0131-0.11195 0.0197-0.2239 0.0197-0.33585v-1.2841c0-0.11195-0.0066-0.2239-0.0197-0.33584-0.0132-0.11195-0.0429-0.22061-0.0889-0.32597-0.0396-0.11195-0.0922-0.21402-0.1581-0.30621-0.0658-0.09219-0.1482-0.16792-0.2469-0.22719-0.0922-0.05927-0.1943-0.10207-0.3062-0.12841-0.112-0.02634-0.2272-0.03951-0.3458-0.03951-0.1119 0-0.2239 0.01646-0.3358 0.04939-0.1054 0.02634-0.2042 0.07243-0.2963 0.13829-0.0922 0.05926-0.1713 0.13499-0.2371 0.22719-0.0659 0.09219-0.1185 0.19097-0.1581 0.29633-0.0395 0.09878-0.0658 0.20414-0.079 0.31609-0.0131 0.11195-0.0197 0.22389-0.0197 0.33584v1.2841c0 0.11195 0.0066 0.2239 0.0197 0.33585 0.0132 0.11195 0.0395 0.2206 0.079 0.32596 0.0396 0.10537 0.0922 0.20415 0.1581 0.29634 0.0724 0.09219 0.1547 0.17121 0.2469 0.23707 0.0922 0.05926 0.1943 0.10207 0.3062 0.12841 0.112 0.02634 0.2239 0.03951 0.3359 0.03951z" style="white-space:pre"/>
  <path d="m54.904 8.4282-0.8396-5.2352h0.7804l0.4642 4.4746 0.5235-3.0127h0.7705l0.5235 3.0127 0.4643-4.4746h0.7803l-0.8396 5.2352h-0.7606l-0.5531-2.8053-0.5532 2.8053z" style="white-space:pre"/>
  <path d="m61.867 6.4625c-0.0395 0-0.0823-0.0033-0.1284-0.0099-0.0395-0.0066-0.0791-0.01319-0.1186-0.01976-0.0329-0.01317-0.0691-0.02964-0.1086-0.04939-0.033-0.01975-0.0692-0.03951-0.1087-0.05927-0.0329-0.01975-0.0625-0.03951-0.0889-0.05927-0.0263-0.02634-0.056-0.05268-0.0889-0.07902-0.0329-0.03293-0.0625-0.06585-0.0889-0.09878-0.0263-0.03293-0.0527-0.06256-0.079-0.0889-0.0263-0.03293-0.0527-0.06585-0.079-0.09878-0.0264-0.03293-0.0527-0.06256-0.079-0.0889-0.0198-0.03293-0.0428-0.06585-0.0692-0.09878-0.0197-0.03951-0.0461-0.07573-0.079-0.10866-0.0264-0.03951-0.0527-0.07573-0.079-0.10865-0.0198-0.03293-0.0428-0.06256-0.0692-0.0889-0.0197-0.02634-0.0494-0.05598-0.0889-0.0889-0.0395-0.03293-0.0625-0.05269-0.0691-0.05927 0 0.0066-0.0165 0.01977-0.0494 0.03951-0.0263 0.01316-0.0527 0.03292-0.079 0.05927-0.0198 0.01975-0.0395 0.0428-0.0593 0.06914-0.0197 0.02634-0.0362 0.04609-0.0494 0.05927-0.0132 0.01317-0.0263 0.02963-0.0395 0.04939-0.0132 0.01317-0.0263 0.02963-0.0395 0.04939-0.0132 0.01975-0.0263 0.03951-0.0395 0.05927-0.0132 0.01975-0.0264 0.0428-0.0395 0.06915-0.0132 0.01975-0.0297 0.0428-0.0494 0.06914-0.0132 0.01975-0.0264 0.0428-0.0395 0.06915-0.0132 0.02634-0.0297 0.05597-0.0494 0.0889-0.0132 0.02634-0.0296 0.05597-0.0494 0.0889-0.0132 0.02634-0.0296 0.05597-0.0494 0.0889-0.0132 0.02634-0.0296 0.05926-0.0494 0.09878-0.0132 0.03292-0.0296 0.06585-0.0494 0.09878-0.0131 0.03292-0.0296 0.06914-0.0494 0.10865l-0.6914-0.28645c0.0658-0.15146 0.1317-0.28646 0.1975-0.40499 0.0659-0.12512 0.1285-0.23707 0.1877-0.33584 0.0659-0.09878 0.1284-0.19098 0.1877-0.27658 0.0659-0.08561 0.1449-0.17122 0.2371-0.25682 0.0922-0.08561 0.1942-0.15476 0.3062-0.20744 0.1119-0.05927 0.2305-0.0889 0.3556-0.0889 0.0395 0 0.079 0.0033 0.1185 0.0099 0.0461 0.0066 0.0856 0.01648 0.1185 0.02963 0.0396 0.01317 0.0758 0.02964 0.1087 0.04939 0.0395 0.01317 0.0757 0.03293 0.1087 0.05927 0.0395 0.01975 0.0724 0.0428 0.0987 0.06914 0.0264 0.01975 0.056 0.04609 0.0889 0.07902 0.033 0.02634 0.0626 0.05597 0.0889 0.0889 0.0264 0.02634 0.0527 0.05597 0.0791 0.0889 0.0263 0.03293 0.0526 0.06585 0.079 0.09878 0.0263 0.02634 0.0494 0.05597 0.0691 0.0889 0.0264 0.03293 0.0494 0.06585 0.0692 0.09878 0.0263 0.03293 0.0526 0.06915 0.079 0.10866 0.0329 0.03292 0.0592 0.06585 0.079 0.09878 0.0263 0.03292 0.0494 0.06256 0.0692 0.0889 0.0263 0.02634 0.0559 0.05597 0.0889 0.0889 0.0395 0.02634 0.0658 0.04609 0.079 0.05927 0 0 0.0131-0.00988 0.0395-0.02963 0.0329-0.01976 0.0592-0.03951 0.079-0.05927 0.0263-0.01976 0.0494-0.0428 0.0692-0.06914 0.0197-0.02634 0.0362-0.0461 0.0493-0.05927 0.0132-0.01976 0.0264-0.03622 0.0396-0.04939 0.0131-0.01976 0.0263-0.03622 0.0395-0.04939 0.0131-0.01976 0.0263-0.03951 0.0395-0.05927 0.0131-0.02634 0.0263-0.04939 0.0395-0.06915s0.0263-0.0428 0.0395-0.06914c0.0197-0.02634 0.0362-0.05268 0.0494-0.07902s0.0263-0.05268 0.0395-0.07902c0.0197-0.02634 0.0362-0.05268 0.0494-0.07902 0.0197-0.03293 0.0362-0.06586 0.0494-0.09878 0.0197-0.03293 0.0362-0.06586 0.0494-0.09878 0.0197-0.03293 0.0362-0.06586 0.0494-0.09878 0.0197-0.03952 0.0395-0.07903 0.0592-0.11854l0.6915 0.29634c-0.0659 0.14487-0.1317 0.27987-0.1976 0.40499-0.0658 0.12511-0.1317 0.23706-0.1975 0.33584-0.0593 0.09878-0.1219 0.19097-0.1877 0.27658-0.0593 0.07902-0.135 0.16133-0.2272 0.24694s-0.1943 0.15805-0.3062 0.21731c-0.112 0.05268-0.2305 0.07902-0.3556 0.07902z" style="white-space:pre"/>
  <path d="m0.16083 15.647c0 1.9261 0.78034 3.4967 1.9657 4.7018l0.59267-0.3062c-1.136-1.1755-1.8373-2.6374-1.8373-4.3956 0-1.7583 0.70132-3.2202 1.8373-4.3956l-0.59267-0.3063c-1.1853 1.2051-1.9657 2.7757-1.9657 4.7019z" style="white-space:pre"/>
  <path d="m6.9838 18.021c0-0.2154-0.07556-0.3987-0.22668-0.5498-0.15113-0.1544-0.33602-0.2315-0.55467-0.2315-0.21543 0-0.39871 0.0755-0.54983 0.2266-0.14791 0.1512-0.22187 0.3361-0.22187 0.5547 0 0.2154 0.07396 0.3971 0.22187 0.545 0.15112 0.1479 0.33601 0.2219 0.55466 0.2219s0.40193-0.074 0.54984-0.2219c0.15112-0.1479 0.22668-0.3296 0.22668-0.545zm-3.2653-1.3167c0-0.8875 0.21865-1.582 0.65595-2.0836 0.44051-0.5016 1.0466-0.7524 1.8183-0.7524 0.77492 0 1.3826 0.2508 1.8231 0.7524 0.44052 0.5016 0.66077 1.1961 0.66077 2.0836 0 0.8842-0.22025 1.5788-0.66077 2.0836-0.44051 0.5016-1.0482 0.7524-1.8231 0.7524-0.7717 0-1.3778-0.2508-1.8183-0.7524-0.4373-0.5048-0.65595-1.1994-0.65595-2.0836zm4.0177 0c0-0.6399-0.13826-1.1463-0.41479-1.5193-0.27652-0.3762-0.65273-0.5643-1.1286-0.5643-0.47267 0-0.84726 0.1865-1.1238 0.5595-0.27653 0.3698-0.41479 0.8778-0.41479 1.5241 0 0.3087 0.03215 0.5868 0.09646 0.8344 0.07074-0.2283 0.19453-0.4325 0.37138-0.6125 0.29582-0.2991 0.65755-0.4486 1.0852-0.4486 0.43729 0 0.79903 0.1527 1.0852 0.4582 0.16399 0.1608 0.28296 0.3473 0.35691 0.5595 0.05788-0.2347 0.08682-0.4984 0.08682-0.791z" style="white-space:pre"/>
  <path d="m10.116 20.408 1.1557-1.8274-1.1557-1.8373h0.889l0.0988 0.1679 0.5828 0.9779 0.6816-1.1458h0.889l-1.1557 1.8373 1.1557 1.8274h-0.889l-0.6816-1.136-0.6816 1.136z" style="white-space:pre"/>
  <path d="m22.905 18.021c0-0.2154-0.0756-0.3987-0.2267-0.5498-0.1511-0.1544-0.336-0.2315-0.5546-0.2315-0.2155 0-0.3988 0.0755-0.5499 0.2266-0.1479 0.1512-0.2218 0.3361-0.2218 0.5547 0 0.2154 0.0739 0.3971 0.2218 0.545 0.1511 0.1479 0.336 0.2219 0.5547 0.2219 0.2186 0 0.4019-0.074 0.5498-0.2219 0.1511-0.1479 0.2267-0.3296 0.2267-0.545zm-3.2653-1.3167c0-0.8875 0.2187-1.582 0.656-2.0836 0.4405-0.5016 1.0466-0.7524 1.8183-0.7524 0.7749 0 1.3826 0.2508 1.8232 0.7524 0.4405 0.5016 0.6607 1.1961 0.6607 2.0836 0 0.8842-0.2202 1.5788-0.6607 2.0836-0.4406 0.5016-1.0483 0.7524-1.8232 0.7524-0.7717 0-1.3778-0.2508-1.8183-0.7524-0.4373-0.5048-0.656-1.1994-0.656-2.0836zm4.0177 0c0-0.6399-0.1383-1.1463-0.4148-1.5193-0.2765-0.3762-0.6527-0.5643-1.1286-0.5643-0.4727 0-0.8473 0.1865-1.1238 0.5595-0.2765 0.3698-0.4148 0.8778-0.4148 1.5241 0 0.3087 0.0322 0.5868 0.0965 0.8344 0.0707-0.2283 0.1945-0.4325 0.3714-0.6125 0.2958-0.2991 0.6575-0.4486 1.0852-0.4486 0.4373 0 0.799 0.1527 1.0852 0.4582 0.164 0.1608 0.2829 0.3473 0.3569 0.5595 0.0579-0.2347 0.0868-0.4984 0.0868-0.791z" style="white-space:pre"/>
  <path d="m29.198 19.4h0.9581c0.0593-2.7361 0.6421-4.3561 2.509-6.6971v-0.563h-5.1463v0.7704h4.1091c-1.5804 2.0447-2.3015 3.6844-2.4299 6.4897z" style="white-space:pre"/>
  <path d="m5.2578 32v-9.5419h0.77047v9.5419z" style="white-space:pre"/>
  <path d="m10.809 31.141 0.6717-0.5729c-0.6125-0.7211-1.5014-1.6199-2.2126-2.1928l-0.64206 0.563c0.70132 0.5729 1.5508 1.4224 2.183 2.2027z" style="white-space:pre"/>
  <path d="m26.11 28.622c-0.0396 0-0.0824-0.0033-0.1285-0.01-0.0395-0.0067-0.079-0.0133-0.1185-0.0198-0.0329-0.0132-0.0691-0.0297-0.1086-0.0494-0.033-0.0197-0.0692-0.0395-0.1087-0.0593-0.0329-0.0197-0.0626-0.0395-0.0889-0.0593-0.0263-0.0263-0.056-0.0527-0.0889-0.079-0.0329-0.0329-0.0626-0.0659-0.0889-0.0988s-0.0527-0.0626-0.079-0.0889c-0.0264-0.0329-0.0527-0.0659-0.079-0.0988-0.0264-0.0329-0.0527-0.0626-0.0791-0.0889-0.0197-0.0329-0.0428-0.0659-0.0691-0.0988-0.0197-0.0395-0.0461-0.0757-0.079-0.1086-0.0264-0.0396-0.0527-0.0758-0.079-0.1087-0.0198-0.0329-0.0428-0.0626-0.0692-0.0889-0.0197-0.0263-0.0494-0.056-0.0889-0.0889s-0.0625-0.0527-0.0691-0.0593c0 0.0067-0.0165 0.0198-0.0494 0.0395-0.0263 0.0132-0.0527 0.033-0.079 0.0593-0.0198 0.0197-0.0395 0.0428-0.0593 0.0691-0.0197 0.0263-0.0362 0.0461-0.0494 0.0593s-0.0263 0.0297-0.0395 0.0494c-0.0132 0.0132-0.0263 0.0297-0.0395 0.0494s-0.0263 0.0395-0.0395 0.0593c-0.0132 0.0197-0.0264 0.0428-0.0395 0.0691-0.0132 0.0197-0.0297 0.0428-0.0494 0.0691-0.0132 0.0197-0.0264 0.0428-0.0395 0.0691-0.0132 0.0263-0.0297 0.056-0.0494 0.0889-0.0132 0.0263-0.0297 0.056-0.0494 0.0889-0.0132 0.0263-0.0296 0.056-0.0494 0.0889-0.0132 0.0263-0.0296 0.0593-0.0494 0.0988-0.0132 0.0329-0.0296 0.0659-0.0494 0.0988-0.0131 0.0329-0.0296 0.0691-0.0494 0.1087l-0.6914-0.2865c0.0658-0.1515 0.1317-0.2865 0.1975-0.405 0.0659-0.1251 0.1285-0.2371 0.1877-0.3358 0.0659-0.0988 0.1284-0.191 0.1877-0.2766 0.0659-0.0856 0.1449-0.1712 0.2371-0.2568s0.1942-0.1548 0.3062-0.2075c0.1119-0.0592 0.2305-0.0889 0.3556-0.0889 0.0395 0 0.079 0.0034 0.1185 0.01 0.0461 0.0067 0.0856 0.0166 0.1185 0.0296 0.0396 0.0132 0.0758 0.0297 0.1087 0.0494 0.0395 0.0132 0.0757 0.033 0.1087 0.0593 0.0395 0.0198 0.0724 0.0428 0.0987 0.0691 0.0264 0.0198 0.056 0.0461 0.0889 0.079 0.033 0.0264 0.0626 0.056 0.0889 0.0889 0.0264 0.0264 0.0527 0.056 0.0791 0.0889 0.0263 0.033 0.0526 0.0659 0.079 0.0988 0.0263 0.0264 0.0494 0.056 0.0691 0.0889 0.0264 0.033 0.0494 0.0659 0.0692 0.0988 0.0263 0.033 0.0526 0.0692 0.079 0.1087 0.0329 0.0329 0.0592 0.0659 0.079 0.0988 0.0263 0.0329 0.0494 0.0626 0.0691 0.0889 0.0264 0.0263 0.056 0.056 0.0889 0.0889 0.0396 0.0263 0.0659 0.0461 0.0791 0.0593 0 0 0.0131-0.0099 0.0395-0.0296 0.0329-0.0197 0.0592-0.0395 0.079-0.0593 0.0263-0.0197 0.0494-0.0428 0.0691-0.0691 0.0198-0.0263 0.0363-0.0461 0.0494-0.0593 0.0132-0.0197 0.0264-0.0362 0.0395-0.0494 0.0132-0.0197 0.0264-0.0362 0.0395-0.0494 0.0132-0.0197 0.0264-0.0395 0.0396-0.0593 0.0131-0.0263 0.0263-0.0494 0.0395-0.0692 0.0131-0.0197 0.0263-0.0428 0.0395-0.0691 0.0197-0.0263 0.0362-0.0527 0.0494-0.079 0.0131-0.0263 0.0263-0.0527 0.0395-0.079 0.0197-0.0263 0.0362-0.0527 0.0494-0.079 0.0197-0.0329 0.0362-0.0659 0.0494-0.0988 0.0197-0.0329 0.0362-0.0659 0.0493-0.0988 0.0198-0.0329 0.0363-0.0659 0.0494-0.0988 0.0198-0.0395 0.0395-0.0791 0.0593-0.1186l0.6915 0.2964c-0.0659 0.1449-0.1318 0.2799-0.1976 0.405-0.0659 0.1251-0.1317 0.237-0.1976 0.3358-0.0592 0.0988-0.1218 0.191-0.1876 0.2766-0.0593 0.079-0.135 0.1613-0.2272 0.2469s-0.1943 0.1581-0.3062 0.2173c-0.112 0.0527-0.2305 0.079-0.3556 0.079z" style="white-space:pre"/>
  <path d="m31.454 24.849-0.7013 0.5433c1.2446 1.0371 2.8843 2.8546 3.7338 4.1585l0.7409-0.5828c-0.8792-1.2347-2.6473-3.1312-3.7734-4.119z" style="white-space:pre"/>
  <path d="m8.1125 34.744-0.56303 0.237c0.32597 0.4544 0.67169 1.0767 0.92851 1.6002l0.58279-0.2667c-0.23707-0.4741-0.70132-1.2149-0.94827-1.5705zm1.2742-0.5038-0.55316 0.2568c0.33585 0.4347 0.70132 1.0471 0.95815 1.5607l0.57289-0.2766c-0.237-0.4543-0.71118-1.1952-0.97788-1.5409zm-4.0104-0.3062-0.99766-0.01c0.05927 0.2865 0.0889 0.6421 0.0889 1.0075 0 1.0273-0.10865 3.5363-0.10865 4.9982 0 1.6101 0.98778 2.2027 2.4102 2.2027 2.1632 0 3.4375-1.2446 4.119-2.1829l-0.563-0.6717c-0.70132 1.0273-1.7286 2.0447-3.5362 2.0447-0.93839 0-1.62-0.3853-1.62-1.4718 0-1.4718 0.07902-3.8129 0.11854-4.9192 0.0099-0.3259 0.03951-0.6717 0.0889-0.9976z" style="white-space:pre"/>
  <path d="m15.382 33.865-0.9976-0.01c0.0592 0.2864 0.079 0.642 0.079 1.0075 0 1.0372-0.0988 3.5362-0.0988 4.9981 0 1.6101 0.9779 2.2028 2.4003 2.2028 2.1731 0 3.4474-1.2446 4.1289-2.183l-0.563-0.6717c-0.7112 1.0273-1.7286 2.0447-3.5363 2.0447-0.9383 0-1.6199-0.3852-1.6199-1.4718 0-1.4718 0.0691-3.8029 0.1185-4.9191 0.0099-0.326 0.0395-0.6717 0.0889-0.9977z" style="white-space:pre"/>
  <path d="m26.797 36.51c0-0.4694-0.143-0.8392-0.4292-1.1093-0.2862-0.2733-0.6351-0.41-1.0466-0.41-0.328 0-0.656 0.1222-0.984 0.3666-0.3279 0.2412-0.4919 0.6254-0.4919 1.1527v5.0498h-0.9743v-5.0449c0-0.7589 0.2187-1.3312 0.656-1.7171 0.4373-0.3858 1.0353-0.5788 1.7942-0.5788 0.6977 0 1.2797 0.1817 1.7459 0.5451 0.4695 0.3601 0.7042 0.9421 0.7042 1.7459z" style="white-space:pre"/>
  <path d="m28.741 42.251v-0.6915h3.6746v0.6915z" style="white-space:pre"/>
  <path d="m35.172 43.585-0.573-0.4544c0.2042-0.2173 0.3886-0.4511 0.5532-0.7013 0.1712-0.2437 0.3029-0.5071 0.3951-0.7902h-0.0395c-0.0988 0-0.2009-0.0165-0.3062-0.0494-0.0988-0.033-0.1844-0.0856-0.2568-0.1581-0.0725-0.0724-0.1252-0.158-0.1581-0.2568-0.0263-0.0988-0.0395-0.2008-0.0395-0.3062s0.0132-0.2074 0.0395-0.3062c0.0329-0.0988 0.0856-0.1844 0.1581-0.2568 0.079-0.0791 0.1679-0.1317 0.2667-0.1581 0.0987-0.0329 0.2008-0.0494 0.3062-0.0494 0.1053 0 0.2074 0.0165 0.3062 0.0494 0.1053 0.0329 0.1942 0.0889 0.2667 0.1679 0.079 0.0725 0.1317 0.1614 0.158 0.2667 0.0264 0.1054 0.0395 0.2108 0.0395 0.3161 0 0.2437-0.0296 0.4873-0.0889 0.731-0.0592 0.2436-0.1383 0.4774-0.237 0.7013-0.0988 0.2305-0.2173 0.4478-0.3556 0.6519-0.1317 0.2108-0.2766 0.4116-0.4347 0.6026z" style="white-space:pre"/>
  <path d="m38.985 43.15-0.3754-0.6026c0.3688-0.2107 0.698-0.4774 0.9878-0.8001 0.2897-0.3226 0.5235-0.675 0.7013-1.0569 0.1844-0.3885 0.3128-0.7935 0.3853-1.215 0.0724-0.4214 0.1086-0.8462 0.1086-1.2742s-0.0362-0.8528-0.1086-1.2742c-0.0725-0.4215-0.2009-0.8232-0.3853-1.2051-0.1778-0.3885-0.4116-0.7441-0.7013-1.0668-0.2898-0.3227-0.619-0.5894-0.9878-0.8001l0.3754-0.6026c0.2897 0.1581 0.5564 0.3458 0.8001 0.5631 0.2502 0.2107 0.4741 0.4478 0.6717 0.7112 0.1975 0.2568 0.3687 0.5334 0.5136 0.8297 0.1449 0.2898 0.2601 0.5927 0.3457 0.9088 0.0856 0.316 0.1482 0.6354 0.1877 0.9581s0.0593 0.6486 0.0593 0.9779-0.0198 0.6552-0.0593 0.9779-0.1021 0.6421-0.1877 0.9581c-0.0856 0.3161-0.2008 0.6224-0.3457 0.9187-0.1449 0.2897-0.3161 0.563-0.5136 0.8198-0.1976 0.2634-0.4215 0.5005-0.6717 0.7112-0.2437 0.2173-0.5104 0.405-0.8001 0.5631z" style="white-space:pre"/>
  <path d="m50.848 34.458-0.9384-0.2568c-0.2865 1.4224-0.9483 3.0424-1.8669 4.1882-0.8989 1.1162-2.262 2.1039-3.7338 2.6176l0.6914 0.7211c1.4126-0.5828 2.8251-1.6793 3.724-2.8152 0.8297-1.0668 1.4224-2.5188 1.8076-3.5955 0.079-0.247 0.1976-0.6026 0.3161-0.8594z" style="white-space:pre"/>
 </g>
</svg>
