<svg width="32" height="32" version="1.1" viewBox="0 0 8.4667 8.4667" xmlns="http://www.w3.org/2000/svg">
 <g>
  <rect y="3.4694e-18" width="8.4667" height="8.4667" fill="#fff"/>
  <path transform="scale(.26458)" d="m0 0v32h32v-32h-32zm26.076 11.668 0.20703 0.11719c0.25059 0.13674 0.48214 0.29995 0.69336 0.48828 0.21215 0.17967 0.40815 0.38214 0.57617 0.60547v0.007813c0.16837 0.2196 0.32 0.45283 0.44336 0.70508 0.12461 0.24915 0.22148 0.50414 0.29492 0.77539 0.072267 0.26674 0.12104 0.5398 0.1543 0.8125 0.032773 0.27076 0.052735 0.54402 0.052735 0.82031 0 0.2761-0.019475 0.54722-0.052735 0.81836-0.033222 0.27292-0.082028 0.54583-0.1543 0.8125-0.073323 0.27081-0.17092 0.53547-0.29492 0.78906-0.12422 0.24835-0.27404 0.481-0.44336 0.70117-0.17089 0.22783-0.36727 0.43079-0.58398 0.61328-0.21 0.18666-0.43678 0.35057-0.68555 0.48633l-0.20703 0.11133-0.56836-0.90625 0.22852-0.12695c0.27483-0.15702 0.52118-0.35591 0.73828-0.59766 0.21839-0.24315 0.39224-0.50891 0.52539-0.79492 0.1395-0.2938 0.24012-0.59949 0.29492-0.91797 0.056232-0.32666 0.080078-0.65448 0.080078-0.98633 0-0.33192-0.023797-0.66371-0.080078-0.99023-0.054728-0.31824-0.15595-0.62238-0.29492-0.91016-0.13321-0.29109-0.30754-0.55423-0.52539-0.79687-0.21713-0.24176-0.46343-0.43869-0.73828-0.5957l-0.22852-0.13281 0.56836-0.9082zm-20.787 0.18164 0.94531 0.48828-0.23633 0.24414c-0.88193 0.91254-1.4102 2.0261-1.4102 3.3809 0 1.3546 0.5282 2.4702 1.4102 3.3828l0.23633 0.23633-0.94531 0.48633-0.125-0.13281c-0.99579-1.0124-1.6621-2.3483-1.6621-3.9727 0-1.6244 0.66637-2.9681 1.6621-3.9805l0.125-0.13281zm3.2734 2.4219c0.020971-4.57e-4 0.041335 0 0.0625 0 0.68029 0 1.2581 0.23332 1.6621 0.69336 0.40431 0.46036 0.59766 1.0948 0.59766 1.8535 0 0.75619-0.19402 1.3832-0.59766 1.8457-0.40402 0.46004-0.98184 0.69531-1.6621 0.69531-0.67791 0-1.2485-0.23549-1.6523-0.69531-0.40078-0.46263-0.5918-1.0898-0.5918-1.8457 0-0.75841 0.19036-1.393 0.5918-1.8535 0.39121-0.44544 0.9396-0.67919 1.5898-0.69336zm12.873 0c0.020988-4.57e-4 0.043288 0 0.064453 0 0.68027 2e-6 1.2561 0.23334 1.6602 0.69336 0.40426 0.46036 0.5918 1.0948 0.5918 1.8535 0 0.75618-0.18818 1.3832-0.5918 1.8457-0.40409 0.46001-0.97988 0.69531-1.6602 0.69531-0.67791 0-1.2583-0.23549-1.6621-0.69531-0.40078-0.46262-0.58984-1.0898-0.58984-1.8457 0-0.75842 0.1884-1.393 0.58984-1.8535 0.39118-0.44546 0.94698-0.67919 1.5977-0.69336zm-12.811 1.1074c-0.31628 0-0.51824 0.10677-0.70117 0.35352h-0.0058593c-0.17791 0.23792-0.26924 0.59329-0.27344 1.0645 0.27495-0.25502 0.61446-0.41406 0.99609-0.41406 0.37967 0 0.70743 0.16331 0.97461 0.41406-0.0041953-0.46593-0.094439-0.82302-0.27344-1.0645-0.18294-0.24891-0.39803-0.35352-0.7168-0.35352zm12.875 0c-0.31631 0-0.52609 0.10678-0.70898 0.35352-0.1779 0.23794-0.27706 0.59328-0.28125 1.0645 0.27494-0.25501 0.61639-0.41406 0.99805-0.41406 0.37987 0 0.71322 0.16308 0.98047 0.41406-0.004195-0.46594-0.10034-0.823-0.2793-1.0645-0.18294-0.24892-0.39018-0.35352-0.70898-0.35352zm-10.15 1.2188h1.3145l0.14648 0.25977 0.25976 0.42578 0.4043-0.68555h1.3145l-1.0918 1.7344 1.0918 1.7285h-1.3145l-0.4043-0.6875-0.41406 0.6875h-0.85547-0.45898l1.0938-1.7285-1.0859-1.7344zm-2.7168 0.90039c-0.11569 0-0.18554 0.031228-0.26562 0.11133-0.07725 0.079151-0.10352 0.15311-0.10352 0.27344 0 0.1169 0.026905 0.18316 0.10352 0.25977 0.079106 0.077401 0.15314 0.10938 0.27344 0.10938s0.18966-0.033384 0.26562-0.10938c0.078637-0.077095 0.11133-0.14413 0.11133-0.25977 0-0.11563-0.031198-0.19333-0.11133-0.27344-0.079975-0.08171-0.15548-0.11133-0.27344-0.11133zm12.875 0c-0.11312 0-0.18777 0.035378-0.26562 0.11133-0.077466 0.079151-0.11133 0.15311-0.11133 0.27344 0 0.1169 0.026905 0.18316 0.10352 0.25977 0.07903 0.077401 0.15302 0.10938 0.27344 0.10938 0.12026 0 0.18962-0.033384 0.26563-0.10938h0.007812c0.078773-0.077114 0.10156-0.14416 0.10156-0.25977 0-0.1156-0.029245-0.19331-0.10937-0.27344-0.0799-0.081672-0.14767-0.11133-0.26563-0.11133z" fill="#d33682" stroke-width=".27586"/>
 </g>
</svg>
